<?xml version="1.0" standalone="no"?>
<!DOCTYPE svg PUBLIC "-//W3C//DTD SVG 20010904//EN"
 "http://www.w3.org/TR/2001/REC-SVG-20010904/DTD/svg10.dtd">
<svg version="1.0" xmlns="http://www.w3.org/2000/svg"
 width="887.000000pt" height="887.000000pt" viewBox="0 0 887.000000 887.000000"
 preserveAspectRatio="xMidYMid meet">
<metadata>
Created by potrace 1.11, written by Peter Selinger 2001-2013
</metadata>
<g transform="translate(0.000000,887.000000) scale(0.100000,-0.100000)"
fill="#000000" stroke="none">
<path d="M1200 7356 c-59 -39 -136 -113 -168 -162 -72 -110 -147 -276 -166
-367 -3 -12 -7 -31 -10 -42 -60 -252 -72 -472 -41 -735 12 -99 16 -128 31
-210 21 -111 21 -113 42 -195 l18 -70 -117 -120 c-229 -233 -335 -352 -430
-480 -24 -33 -47 -61 -51 -63 -5 -2 -8 -8 -8 -13 0 -5 -15 -30 -34 -56 -66
-93 -197 -365 -206 -428 0 -3 -7 -23 -16 -46 -8 -23 -12 -44 -9 -47 2 -2 0
-12 -4 -21 -32 -59 -35 -329 -6 -475 15 -76 50 -187 76 -242 16 -34 29 -64 29
-67 0 -18 125 -209 170 -261 45 -51 151 -156 158 -156 4 0 25 -16 47 -36 22
-19 51 -41 65 -48 14 -7 53 -29 88 -49 34 -20 63 -36 65 -35 1 0 18 -6 38 -15
40 -16 143 -48 174 -53 11 -2 36 -6 55 -10 53 -10 294 -13 337 -4 21 5 56 11
78 14 38 6 41 5 43 -20 1 -15 8 -48 16 -74 8 -27 12 -51 9 -54 -3 -3 -1 -11 4
-18 5 -7 16 -40 23 -73 8 -33 15 -64 16 -70 5 -21 46 -211 49 -230 46 -257 -1
-494 -119 -598 -70 -61 -188 -121 -264 -133 -51 -8 -170 -9 -209 0 -58 11
-142 66 -163 106 -6 12 0 15 34 16 130 5 236 83 283 211 6 18 11 67 9 110 -2
105 -38 185 -113 253 -128 117 -299 114 -420 -7 -26 -26 -55 -57 -63 -68 -39
-53 -79 -202 -74 -275 5 -59 38 -165 59 -190 8 -8 14 -19 14 -23 0 -15 65 -83
116 -122 67 -51 175 -100 260 -118 69 -15 255 -17 303 -3 12 3 30 8 40 10 257
63 441 292 445 556 1 45 -13 221 -17 229 -2 3 -7 22 -10 41 -3 19 -12 67 -20
105 -9 39 -18 84 -21 100 -4 17 -13 59 -22 95 -8 36 -17 76 -19 90 -3 14 -11
58 -20 98 -17 87 -17 84 -15 99 0 7 34 28 75 47 100 46 159 87 231 160 78 79
89 95 128 169 82 159 106 264 102 447 -3 146 -26 249 -86 378 -113 245 -294
389 -549 437 -25 5 -140 9 -150 5 -18 -7 -90 -9 -88 -3 1 7 -5 46 -18 103 -13
59 -76 360 -80 380 -2 14 -7 37 -10 53 -5 23 3 36 49 85 30 31 71 77 92 102
20 25 43 53 51 63 8 9 14 22 14 27 0 6 4 10 9 10 8 0 55 74 114 181 82 149
170 406 191 560 4 25 9 57 11 70 15 91 21 319 10 409 -3 19 -7 56 -9 81 -4 39
-15 95 -41 213 -2 10 -12 39 -21 65 -86 242 -221 452 -291 451 -16 -1 -57 -20
-93 -44z m241 -493 c26 -16 57 -64 64 -99 2 -10 4 -19 5 -19 2 0 9 -63 13
-118 1 -21 0 -40 -4 -43 -4 -2 -5 -12 -2 -22 7 -27 -22 -153 -58 -250 -40
-110 -105 -232 -183 -347 -79 -116 -85 -124 -185 -225 l-83 -84 -14 26 c-44
85 -72 329 -53 467 5 36 11 81 14 100 3 20 10 54 15 76 6 22 13 51 16 65 19
91 111 312 151 361 83 103 154 142 238 132 22 -3 52 -12 66 -20z m-416 -1889
c7 -51 8 -56 30 -164 8 -41 17 -90 20 -109 3 -19 7 -37 9 -40 2 -3 7 -24 10
-46 4 -22 9 -54 12 -72 6 -31 4 -33 -58 -64 -214 -108 -369 -335 -404 -594 -7
-52 -7 -50 0 -125 8 -77 9 -86 24 -123 7 -16 12 -32 12 -37 0 -18 82 -147 117
-185 80 -85 165 -140 259 -168 56 -16 74 -13 74 12 0 11 -20 28 -55 46 -68 34
-133 94 -168 155 -26 47 -69 162 -69 189 0 144 41 242 141 341 82 80 107 100
126 100 7 0 16 4 19 9 3 5 19 14 36 19 29 10 30 10 39 -26 6 -20 18 -75 27
-122 9 -47 18 -94 20 -105 6 -30 35 -176 40 -205 3 -14 7 -32 9 -40 2 -8 7
-31 10 -50 3 -19 29 -150 57 -290 28 -140 51 -264 52 -274 1 -15 -10 -22 -47
-32 -136 -35 -304 -38 -442 -10 -108 23 -250 88 -341 157 -271 205 -390 528
-319 864 20 93 20 95 28 115 3 8 13 38 23 65 64 176 208 386 413 600 95 99
268 255 282 255 4 0 10 -21 14 -46z m430 -849 c17 -4 35 -10 40 -14 6 -3 12
-6 15 -6 34 -5 119 -63 176 -119 90 -91 140 -185 170 -321 7 -36 11 -146 5
-159 -2 -5 -5 -21 -7 -35 -16 -179 -123 -344 -272 -423 -56 -29 -58 -28 -69
42 -9 57 -10 64 -16 80 -3 8 -8 32 -11 52 -3 21 -11 59 -17 85 -6 27 -14 68
-19 93 -5 25 -11 59 -15 75 -3 17 -15 73 -25 125 -11 52 -33 160 -49 240 -17
80 -32 156 -35 170 -3 14 -9 47 -15 75 -6 31 -6 52 0 56 10 6 91 -3 144 -16z"/>
<path d="M2948 4585 c-51 -11 -115 -31 -142 -43 -78 -35 -173 -109 -231 -179
-49 -60 -120 -184 -130 -230 -2 -10 -12 -45 -21 -78 -20 -76 -23 -88 -30 -155
-7 -65 -7 -234 -1 -305 7 -74 37 -205 53 -237 8 -15 12 -28 8 -28 -8 0 68
-140 92 -170 120 -150 234 -222 419 -264 57 -12 276 -15 335 -3 142 27 267 89
354 174 166 162 245 393 240 698 -1 72 -5 146 -9 165 -4 19 -8 48 -11 64 -10
81 -70 233 -121 311 -86 130 -263 252 -407 281 -11 2 -34 7 -51 10 -76 16
-254 10 -347 -11z m343 -231 c57 -22 114 -62 161 -111 38 -40 106 -156 113
-194 2 -12 9 -36 14 -53 30 -91 37 -309 15 -431 -13 -77 -21 -110 -24 -110 -1
0 -3 -8 -5 -17 -8 -44 -75 -154 -121 -201 -93 -94 -194 -132 -335 -123 -80 4
-88 6 -167 42 -105 48 -201 179 -237 326 -9 35 -20 74 -24 88 -11 38 -5 328 8
380 6 25 14 56 17 70 13 65 74 170 135 232 96 97 178 128 320 123 50 -2 104
-11 130 -21z"/>
<path d="M4685 4593 c-147 -25 -241 -67 -323 -146 -86 -83 -131 -206 -126
-341 8 -215 116 -340 358 -415 37 -11 78 -23 90 -25 11 -3 53 -12 91 -21 39
-9 77 -18 85 -20 8 -2 35 -9 60 -16 25 -7 47 -13 50 -14 95 -22 211 -100 216
-145 1 -5 2 -11 4 -12 19 -24 14 -120 -9 -174 -34 -78 -132 -135 -259 -150
-201 -23 -443 22 -634 117 -32 16 -59 29 -61 29 -2 0 -4 -63 -3 -139 l0 -139
90 -26 c101 -28 218 -53 298 -63 72 -10 345 -8 388 1 19 5 42 9 50 10 8 1 40
11 70 21 200 66 333 206 356 375 24 177 -33 329 -158 425 -68 52 -240 114
-417 151 -173 36 -289 77 -340 120 -45 37 -62 77 -62 141 0 113 66 185 206
223 84 23 293 24 391 3 38 -8 80 -17 93 -19 13 -3 62 -20 109 -39 48 -19 89
-30 92 -25 9 14 4 230 -6 239 -12 12 -138 50 -184 57 -19 3 -47 7 -62 10 -64
13 -101 16 -233 18 -84 2 -172 -3 -220 -11z"/>
<path d="M6260 4595 c-95 -17 -147 -33 -214 -67 -66 -33 -150 -107 -173 -153
-9 -16 -19 -32 -23 -35 -4 -3 -16 -39 -27 -80 -47 -177 3 -369 121 -462 69
-55 208 -113 318 -133 64 -12 300 -76 349 -94 107 -40 159 -111 159 -216 0
-110 -71 -191 -195 -223 -203 -54 -481 -16 -719 99 -33 16 -60 29 -61 29 -1 0
-2 -62 -2 -139 l0 -139 40 -12 c98 -29 233 -59 337 -74 93 -14 314 -15 395 -2
251 40 437 191 476 385 10 55 8 174 -5 231 -12 51 -58 129 -103 174 -73 71
-265 155 -417 182 -73 12 -236 57 -296 80 -114 45 -153 97 -151 204 2 69 37
129 99 166 84 51 155 64 322 59 80 -2 157 -6 171 -8 60 -11 181 -48 234 -72
32 -14 60 -25 64 -25 3 0 6 56 6 125 l0 126 -78 24 c-43 14 -94 27 -115 31
-54 8 -77 12 -77 14 0 14 -359 18 -435 5z"/>
<path d="M8046 4603 c-2 -2 -16 -6 -32 -9 -249 -40 -449 -187 -551 -404 -34
-73 -51 -116 -58 -145 -2 -11 -9 -38 -14 -60 -22 -86 -30 -279 -18 -400 3 -27
6 -50 7 -50 1 0 3 -11 6 -25 26 -157 132 -340 260 -446 84 -71 230 -140 330
-158 16 -3 52 -10 79 -15 28 -5 115 -8 195 -6 143 3 160 5 270 27 30 6 60 11
65 12 31 6 194 60 217 72 l28 14 -1 125 c-1 69 -3 125 -5 125 -3 0 -30 -13
-62 -28 -126 -63 -266 -101 -432 -118 -36 -3 -68 -8 -72 -11 -5 -2 -8 -1 -8 4
0 4 -28 8 -63 9 -58 0 -96 5 -157 18 -49 11 -170 79 -211 120 -94 92 -147 212
-165 374 l-6 52 611 0 611 0 0 183 c0 228 -18 300 -107 440 -129 203 -314 298
-586 302 -70 1 -129 0 -131 -2z m243 -238 c95 -25 123 -41 192 -108 76 -73
122 -176 134 -298 l7 -66 -482 -1 -482 -1 6 47 c22 180 124 328 271 393 100
44 259 60 354 34z"/>
</g>
</svg>
