<svg height="512pt" viewBox="0 0 512 512" width="512pt" xmlns="http://www.w3.org/2000/svg"><path d="m498.128906 108.410156-5.097656-12.210937-12.75 3.539062c-2.101562.582031-4.261719.882813-6.410156.882813-9.992188 0-19.019532-6.300782-22.472656-15.671875l-5.308594-14.410157-14.28125 5.652344c-2.808594 1.109375-5.769532 1.667969-8.789063 1.667969-12.429687 0-22.667969-9.308594-23.820312-21.660156l-1.648438-17.640625-17.121093 4.53125c-2 .53125-4.070313.800781-6.140626.800781-13.199218 0-23.929687-10.742187-23.929687-23.929687 0-.980469.0625-1.980469.199219-3.0625l2.152344-16.898438h-17.351563c-89.890625 0-164.289063 67.589844-175.03125 154.628906-89.96875 9.449219-160.328125 85.761719-160.328125 178.191406 0 98.800782 80.378906 179.179688 179.179688 179.179688 92.550781 0 168.929687-70.53125 178.230468-160.660156 86.871094-10.890625 154.300782-85.210938 154.300782-174.980469 0-23.53125-4.570313-46.390625-13.582032-67.949219zm-140.160156 212.550782c-7.367188 1.148437-14.917969 1.75-22.609375 1.75-2.46875 0-4.917969-.0625-7.347656-.179688-74.792969-3.722656-134.972657-63.820312-138.8125-138.5625-.128907-2.519531-.199219-5.058594-.199219-7.609375 0-7.597656.578125-15.070313 1.710938-22.359375 10.097656-65.621094 63.9375-117 130.710937-123.339844 4.886719 24.179688 26 42.539063 51.4375 43.210938 7.910156 20.128906 27.410156 33.988281 50.160156 33.988281 2.210938 0 4.402344-.128906 6.570313-.398437 10.039062 14.378906 26.730468 23.359374 44.832031 23.148437 4.839844 14.699219 7.289063 30.039063 7.289063 45.75 0 73.011719-53.742188 133.710937-123.742188 144.601563zm-178.789062 161.039062c-82.257813 0-149.179688-66.921875-149.179688-149.179688 0-75.480468 56.359375-138.058593 129.210938-147.851562 4.367187 90.511719 77.289062 163.332031 167.847656 167.542969-9.660156 72.988281-72.296875 129.488281-147.878906 129.488281zm0 0"/><path d="m283.039062 80.078125h29.25v29.25h-29.25zm0 0"/><path d="m229.710938 160.898438v12.429687h29.25v-29.25h-29.25zm0 0"/><path d="m112.375 232.746094h29.25v29.25h-29.25zm0 0"/><path d="m66.375 288.078125h29.25v29.25h-29.25zm0 0"/><path d="m159.375 332.820312h29.25v29.25h-29.25zm0 0"/><path d="m89.792969 379.707031h29.25v29.25h-29.25zm0 0"/><path d="m251.332031 373.707031h29.25v29.25h-29.25zm0 0"/><path d="m179.179688 423.042969h29.25v29.25h-29.25zm0 0"/><path d="m312.289062 176.359375h29.25v29.25h-29.25zm0 0"/><path d="m354 121.058594h29.25v29.25h-29.25zm0 0"/><path d="m412.671875 176.359375h29.25v29.25h-29.25zm0 0"/><path d="m354 250.378906h29.25v29.242188h-29.25zm0 0"/><path d="m261.328125 235.75h29.25v29.25h-29.25zm0 0"/></svg>